<?xml version="1.0" encoding="UTF-8" standalone="no"?>
<!DOCTYPE svg PUBLIC "-//W3C//DTD SVG 1.1//EN" "http://www.w3.org/Graphics/SVG/1.1/DTD/svg11.dtd">
<svg width="100%" height="100%" viewBox="0 0 3705 572" version="1.1" xmlns="http://www.w3.org/2000/svg" xmlns:xlink="http://www.w3.org/1999/xlink" xml:space="preserve" xmlns:serif="http://www.serif.com/" style="fill-rule:evenodd;clip-rule:evenodd;stroke-linecap:round;stroke-linejoin:round;stroke-miterlimit:1.5;">
    <g transform="matrix(1,0,0,1,-4966.15,-1185.74)">
        <g transform="matrix(1,0,0,1,4439.34,-53.3039)">
            <g>
                <g transform="matrix(1,0,0,1,-521.911,74.6382)">
                    <path d="M1296.78,1194.41C1165.4,1241.83 1121.37,1316.83 1126.98,1427.37C1098.03,1401.11 1104.69,1388.43 1099.8,1351.56C994.567,1506.78 1077.19,1606.9 1123.53,1657.88C1194.07,1723.41 1326.95,1719.28 1377.79,1657.42C1469.61,1530.07 1428.22,1418.53 1395.21,1369.26C1399.33,1432.98 1373.83,1477.03 1363.15,1487.28C1363.62,1424.79 1282.85,1336.8 1274.12,1273.3C1270.83,1235.65 1281.56,1211.3 1296.78,1194.41Z" style="fill:rgb(92,219,148);"/>
                </g>
                <g transform="matrix(1,0,0,1,-521.911,74.6382)">
                    <path d="M1296.78,1194.41C1254.9,1209.53 1215.93,1336.4 1233.29,1409.06C1224.21,1421.51 1237.87,1483.02 1253.58,1508.3C1317.16,1610.65 1207.66,1701.09 1226.69,1703.57C1285.76,1711.27 1346.91,1695 1377.79,1657.42C1469.61,1530.07 1428.22,1418.53 1395.21,1369.26C1399.33,1432.98 1373.83,1477.03 1363.15,1487.28C1363.62,1424.79 1282.85,1336.8 1274.12,1273.3C1270.83,1235.65 1281.56,1211.3 1296.78,1194.41Z" style="fill:rgb(93,164,118);"/>
                </g>
            </g>
            <g>
                <g transform="matrix(0.51929,0,0,0.51929,70.6885,893.173)">
                    <path d="M1234.51,1136.63C1125.19,1236.12 1102.39,1339.42 1152.34,1468.04C1123.39,1441.78 1103.09,1410.71 1098.2,1373.84C992.96,1529.05 1077.19,1606.9 1123.53,1657.88C1194.07,1723.41 1326.95,1719.28 1377.79,1657.42C1476.64,1576.67 1458.36,1452.68 1425.35,1403.41C1429.46,1467.13 1413.79,1545.96 1374.72,1581.7C1382.69,1523.03 1400.69,1478.63 1309.68,1356.04C1233.35,1261.2 1219.29,1153.51 1234.51,1136.63Z" style="fill:rgb(128,128,128);"/>
                </g>
                <g transform="matrix(0.51929,0,0,0.51929,70.6885,893.173)">
                    <path d="M1234.51,1136.63C1189.88,1173.22 1185.68,1379.26 1231.51,1505.88C1275.45,1627.26 1206.59,1700.46 1220.56,1702.68C1281.48,1712.37 1345.84,1696.3 1377.79,1657.42C1476.64,1576.67 1458.36,1452.68 1425.35,1403.41C1429.46,1467.13 1413.79,1545.96 1374.72,1581.7C1382.69,1523.03 1400.69,1478.63 1309.68,1356.04C1233.35,1261.2 1219.29,1153.51 1234.51,1136.63Z" style="fill:rgb(64,64,64);"/>
                </g>
            </g>
        </g>
        <g transform="matrix(1,0,0,1,7728.38,-53.3039)">
            <g style="filter:url(#_Effect1);">
                <g>
                    <g>
                        <g transform="matrix(1,0,0,1,-521.911,74.6382)">
                            <path d="M1296.78,1194.41C1165.4,1241.83 1121.37,1316.83 1126.98,1427.37C1098.03,1401.11 1104.69,1388.43 1099.8,1351.56C994.567,1506.78 1077.19,1606.9 1123.53,1657.88C1194.07,1723.41 1326.95,1719.28 1377.79,1657.42C1469.61,1530.07 1428.22,1418.53 1395.21,1369.26C1399.33,1432.98 1373.83,1477.03 1363.15,1487.28C1363.62,1424.79 1282.85,1336.8 1274.12,1273.3C1270.83,1235.65 1281.56,1211.3 1296.78,1194.41Z" style="fill:rgb(92,219,148);"/>
                        </g>
                        <g transform="matrix(1,0,0,1,-521.911,74.6382)">
                            <path d="M1296.78,1194.41C1254.9,1209.53 1215.93,1336.4 1233.29,1409.06C1224.21,1421.51 1237.87,1483.02 1253.58,1508.3C1317.16,1610.65 1207.66,1701.09 1226.69,1703.57C1285.76,1711.27 1346.91,1695 1377.79,1657.42C1469.61,1530.07 1428.22,1418.53 1395.21,1369.26C1399.33,1432.98 1373.83,1477.03 1363.15,1487.28C1363.62,1424.79 1282.85,1336.8 1274.12,1273.3C1270.83,1235.65 1281.56,1211.3 1296.78,1194.41Z" style="fill:rgb(93,164,118);"/>
                        </g>
                    </g>
                    <g>
                        <g transform="matrix(0.51929,0,0,0.51929,70.6885,893.173)">
                            <path d="M1234.51,1136.63C1125.19,1236.12 1102.39,1339.42 1152.34,1468.04C1123.39,1441.78 1103.09,1410.71 1098.2,1373.84C992.96,1529.05 1077.19,1606.9 1123.53,1657.88C1194.07,1723.41 1326.95,1719.28 1377.79,1657.42C1476.64,1576.67 1458.36,1452.68 1425.35,1403.41C1429.46,1467.13 1413.79,1545.96 1374.72,1581.7C1382.69,1523.03 1400.69,1478.63 1309.68,1356.04C1233.35,1261.2 1219.29,1153.51 1234.51,1136.63Z" style="fill:rgb(128,128,128);"/>
                        </g>
                        <g transform="matrix(0.51929,0,0,0.51929,70.6885,893.173)">
                            <path d="M1234.51,1136.63C1189.88,1173.22 1185.68,1379.26 1231.51,1505.88C1275.45,1627.26 1206.59,1700.46 1220.56,1702.68C1281.48,1712.37 1345.84,1696.3 1377.79,1657.42C1476.64,1576.67 1458.36,1452.68 1425.35,1403.41C1429.46,1467.13 1413.79,1545.96 1374.72,1581.7C1382.69,1523.03 1400.69,1478.63 1309.68,1356.04C1233.35,1261.2 1219.29,1153.51 1234.51,1136.63Z" style="fill:rgb(64,64,64);"/>
                        </g>
                    </g>
                </g>
            </g>
        </g>
        <g transform="matrix(1,0,0,1,287.178,-765.459)">
            <g transform="matrix(0.553901,0.761401,-0.808465,0.588543,5758.68,788.399)">
                <path d="M867.879,1338.48L1500.04,519.84" style="fill:none;"/>
                <g transform="matrix(0.625071,-0.808658,0.858643,0.588279,323.544,1557.16)">
                    <path d="M1415.27,229.059L1490.3,285.273L1415.33,341.559L1415.27,229.059Z" style="fill:rgb(221,221,221);"/>
                    <path d="M478.307,285.752C478.307,285.752 1212.78,285.405 1430.3,285.302" style="fill:none;stroke:rgb(221,221,221);stroke-width:25px;"/>
                </g>
            </g>
            <g transform="matrix(1,0,0,1,635.296,-1229.25)">
                <g transform="matrix(125,0,0,125,5391.57,3415.64)">
                </g>
                <text x="4657.13px" y="3415.64px" style="font-family:'SegoeUI-Semilight', 'Segoe UI', sans-serif;font-weight:350;font-size:125px;fill:rgb(221,221,221);">measur<tspan x="5049.47px 5113.68px " y="3415.64px 3415.64px ">em</tspan>ent</text>
            </g>
        </g>
        <g transform="matrix(1,0,0,1,220.171,-765.459)">
            <g transform="matrix(0.553541,-0.761664,-0.808744,-0.58816,7531.81,3684.99)">
                <path d="M867.879,1338.48L1500.04,519.84" style="fill:none;"/>
                <g transform="matrix(0.624665,-0.808937,-0.858939,-0.587897,-250.992,3272.84)">
                    <path d="M3120.74,229.263L3195.74,285.513L3120.74,341.763L3120.74,229.263Z" style="fill:rgb(221,221,221);"/>
                    <path d="M2183.74,285.513L3135.74,285.513" style="fill:none;stroke:rgb(221,221,221);stroke-width:25px;"/>
                </g>
            </g>
            <g transform="matrix(1,0,0,1,2573.33,-1237.33)">
                <g transform="matrix(125,0,0,125,5067.17,3415.64)">
                </g>
                <text x="4657.13px" y="3415.64px" style="font-family:'SegoeUI-Semilight', 'Segoe UI', sans-serif;font-weight:350;font-size:125px;fill:rgb(221,221,221);">analysis</text>
            </g>
        </g>
        <g transform="matrix(1,0,0,1,1025.86,459.107)">
            <text x="5514.92px" y="867.711px" style="font-family:'AndaleMono', 'Andale Mono', monospace;font-size:125px;fill:rgb(221,221,221);">1001001</text>
            <text x="5514.92px" y="992.711px" style="font-family:'AndaleMono', 'Andale Mono', monospace;font-size:125px;fill:rgb(221,221,221);">1010100</text>
            <text x="5514.92px" y="1117.71px" style="font-family:'AndaleMono', 'Andale Mono', monospace;font-size:125px;fill:rgb(221,221,221);">1011010</text>
            <g transform="matrix(125,0,0,125,6040.01,1242.71)">
            </g>
            <text x="5514.92px" y="1242.71px" style="font-family:'AndaleMono', 'Andale Mono', monospace;font-size:125px;fill:rgb(221,221,221);">0100011</text>
        </g>
    </g>
    <defs>
        <filter id="_Effect1" filterUnits="userSpaceOnUse" x="466.814" y="1209.05" width="505.002" height="631.026">
            <feGaussianBlur in="SourceGraphic" stdDeviation="10"/>
        </filter>
    </defs>
</svg>
