<?xml version="1.0" encoding="UTF-8" standalone="no"?>
<svg
   version="1.1"
   x="0"
   y="0"
   width="508"
   height="435"
   viewBox="0, 0, 508, 435"
   id="svg65"
   sodipodi:docname="1553172821.svg"
   inkscape:version="1.2.1 (9c6d41e4, 2022-07-14)"
   xmlns:inkscape="http://www.inkscape.org/namespaces/inkscape"
   xmlns:sodipodi="http://sodipodi.sourceforge.net/DTD/sodipodi-0.dtd"
   xmlns="http://www.w3.org/2000/svg"
   xmlns:svg="http://www.w3.org/2000/svg">
  <defs
     id="defs69" />
  <sodipodi:namedview
     id="namedview67"
     pagecolor="#ffffff"
     bordercolor="#666666"
     borderopacity="1.0"
     inkscape:showpageshadow="2"
     inkscape:pageopacity="0.0"
     inkscape:pagecheckerboard="0"
     inkscape:deskcolor="#d1d1d1"
     showgrid="false"
     inkscape:zoom="2.3709667"
     inkscape:cx="248.63277"
     inkscape:cy="196.33342"
     inkscape:window-width="2048"
     inkscape:window-height="1227"
     inkscape:window-x="0"
     inkscape:window-y="25"
     inkscape:window-maximized="0"
     inkscape:current-layer="svg65" />
  <path
     d="m 153.27528,331.98308 11.50997,36.90579 -6.90598,-45.60592 z m 231.43669,-45.9111 -76.68222,62.05604 80.47556,-73.99517 -3.79334,11.93913"
     fill="#dcb7a6"
     id="path10"
     style="fill:#bfbfbf;fill-opacity:1;stroke-width:1.19212" />
  <path
     d="m 188.15804,256.43457 c -8.39732,-3.12218 -7.77503,22.04 0.8786,19.71416 -1.88475,17.19402 -2.29961,34.4071 -3.10429,51.58085 -0.40533,8.61548 -2.25312,17.10341 -3.37849,25.65571 2.29723,-4.23085 4.59088,-8.46289 6.88691,-12.69493 1.17186,-14.58207 2.34014,-29.16533 3.512,-43.74621 0.0894,-0.13709 0.17882,-0.2718 0.26823,-0.40651 0.90005,-12.69136 1.8001,-25.38629 2.70135,-38.07765 -2.5881,-0.67594 -5.17621,-1.35068 -7.76431,-2.02542"
     fill="#b6824f"
     id="path12"
     style="fill:#d91131;fill-opacity:1;stroke-width:1.19212" />
  <path
     d="M 255.48328,355.85657 234.15855,42.8881 227.249,3.2594941 l -2.02423,39.9671689 20.0718,315.192977 10.18671,-2.56307"
     fill="#593d21"
     id="path14"
     style="fill:#800a1d;fill-opacity:1;stroke-width:1.19212" />
  <path
     d="M 84.308495,101.27359 381.63867,72.377686 382.35514,79.972712 85.024962,108.86742 84.308495,101.27359"
     fill="#593d21"
     id="path16"
     style="fill:#800a1d;fill-opacity:1;stroke-width:1.19212" />
  <path
     d="m 236.513,353.3388 c -23.79123,-5.76988 -37.36357,-16.25939 -39.27097,-30.52554 -2.42478,-18.12626 0.93701,-39.68821 2.79792,-59.55974 0.37194,-3.96977 -1.85018,-6.32899 -4.32265,-6.68424 l -7.55926,-0.13471 c 3.20324,1.22908 5.78419,3.41186 5.33476,6.95366 -2.53207,19.80357 -3.84818,39.50701 -4.26542,59.70756 -0.31592,15.19005 -8.22209,27.94698 -18.74616,38.29581 22.3428,2.88733 44.6844,5.77823 67.0272,8.66675 -0.33141,-5.57318 -0.66401,-11.14637 -0.99542,-16.71955"
     fill="#593d21"
     id="path18"
     style="fill:#800a1d;fill-opacity:1;stroke-width:1.19212" />
  <path
     d="M 330.79456,416.66804 C 263.30838,438.64485 222.8286,402.2934 168.84562,395.10608 c -3.87082,-13.23259 -12.0643,-12.96317 -11.61367,-39.69775 100.53902,8.32818 151.12444,-18.43263 164.52034,-71.31647 2.9529,4.23681 5.90579,8.476 8.8551,12.7152 3.06138,16.20336 6.12156,32.40552 9.18056,48.60888 -1.49254,17.6804 -2.98508,35.36199 -4.47643,53.04358 -1.50565,6.0703 -3.01131,12.13941 -4.51696,18.20852"
     fill="#8c6035"
     id="path20"
     style="fill:#c7102d;fill-opacity:1;stroke-width:1.19212" />
  <path
     d="m 91.514888,100.57262 c 2.818183,-0.27418 5.636365,-0.54837 8.45574,-0.821369 24.682932,40.064919 44.806002,26.703589 27.342562,-2.658438 3.19251,-0.309952 6.38502,-0.619904 9.57753,-0.929857 18.29673,38.939554 43.45652,26.663054 28.89591,-2.808645 2.85395,-0.277765 5.70789,-0.554338 8.56065,-0.832103 8.46408,34.292652 38.83227,26.705972 23.7507,-2.307953 2.43312,-0.236041 4.86625,-0.473274 7.30057,-0.709315 10.37625,34.95547 37.90598,26.96347 22.63368,-2.19947 3.03157,-0.295646 6.06195,-0.590101 9.09352,-0.884556 6.98824,36.438476 32.40672,23.941436 22.48705,-2.185164 3.79811,-0.368367 7.59622,-0.737925 11.39313,-1.107484 7.01446,30.337184 36.28828,23.555184 26.69287,-2.594063 3.15674,-0.306376 6.3111,-0.612752 9.46666,-0.919128 5.54099,27.231695 39.8408,19.761849 26.34118,-2.560684 3.1031,-0.301607 6.2062,-0.603215 9.31049,-0.904823 9.61807,24.808112 41.16645,14.236352 28.13534,-2.733541 3.05064,-0.296839 6.09891,-0.593678 9.14717,-0.889325 62.49952,25.479279 91.9295,169.505808 4.61233,213.545278 -25.2647,-36.76036 -131.08364,-30.22513 -231.43669,45.9111 C 155.29474,229.68329 121.2429,129.60205 91.514888,100.57262"
     fill="#ead0c3"
     id="path22"
     style="fill:#d1d1d1;fill-opacity:1;stroke-width:1.19212" />
  <path
     d="m 313.11654,160.22296 14.17079,0.55315 -11.07246,7.6284 -3.09833,-8.18155"
     fill="#6b4927"
     id="path48"
     style="fill:#c7102d;fill-opacity:1;stroke-width:1.19212" />
  <path
     d="m 331.47645,152.7996 c 3.97097,0.63421 7.94075,1.26723 11.9129,1.90263 2.75024,7.46389 1.73574,14.31146 -1.00615,20.87172 l -5.88552,5.77227 -5.70312,-6.51973 c 0.22769,-7.34349 0.4542,-14.68579 0.68189,-22.02689"
     fill="#6b4927"
     id="path50"
     style="fill:#c7102d;fill-opacity:1;stroke-width:1.19212" />
  <path
     d="m 330.79456,174.82649 c 2.09695,-6.7665 3.27596,-13.81434 0.68189,-22.02689 -4.63498,3.3749 -9.27234,6.751 -13.90732,10.12591 -14.6691,-16.51451 -19.3911,47.14376 -14.31146,68.05601 -1.01092,-21.66448 9.23182,-41.31666 12.58645,-32.98013 0.52573,3.93163 0.32903,12.39094 1.72501,10.83403 1.31849,-1.46989 2.63936,-2.93978 3.95785,-4.40848 2.86468,-1.41148 5.73293,-2.82176 8.5988,-4.23323 0.1812,0 0.36121,0 0.54122,0 2.29484,-3.46432 4.59087,-6.93221 6.88452,-10.39533 -0.40294,-3.24258 -0.80826,-6.48277 -1.21358,-9.72297 -1.8466,-1.75004 -3.6944,-3.49888 -5.54338,-5.24892"
     fill="#d3a674"
     id="path52"
     style="fill:#ff153a;fill-opacity:1;stroke-width:1.19212" />
  <path
     d="m 303.25767,230.98152 c 14.07303,59.97936 42.83662,68.60677 27.53689,185.68652 3.83029,-6.39933 7.65701,-12.79985 11.48731,-19.19917 2.34014,-21.24605 4.68147,-42.48732 7.02161,-63.73456 -3.96023,-19.98239 -7.92286,-39.96598 -11.88309,-59.95075 -6.48039,-18.72232 -12.96317,-37.44702 -19.44356,-56.17172 l -0.14305,-9.07207 -0.26465,0.29565 c -1.39598,1.55691 -1.19928,-6.9024 -1.72501,-10.83403 -3.35463,-8.33653 -14.52961,6.99062 -12.58645,32.98013"
     fill="#b6824f"
     id="path54"
     style="fill:#e51234;fill-opacity:1;stroke-width:1.19212" />
  <path
     d="m 330.79456,416.66804 c 38.7667,-143.64387 -28.86968,-154.95951 -14.95044,-218.66665 1.47228,9.58349 9.40944,4.09852 9.7194,-3.7385 5.53622,9.14478 10.47281,-0.46255 5.23104,-19.4364 3.86367,0.24796 7.72616,0.4983 11.58864,0.74746 1.54976,7.85372 4.8138,21.85879 -3.44643,22.39644 l -6.27177,0.40533 c -0.38267,3.93281 -1.21597,5.91651 -4.3143,6.23004 l -6.82372,-0.17882 c -4.17959,59.28197 57.50094,78.36073 20.10876,212.98856 -3.61452,-0.24796 -7.22666,-0.49712 -10.84118,-0.74746"
     fill="#8c6035"
     id="path56"
     style="fill:#d91131;fill-opacity:1;stroke-width:1.19212"
     inkscape:export-filename="../../../work/other/personal_website/assets/img/logo.png"
     inkscape:export-xdpi="600"
     inkscape:export-ydpi="600" />
</svg>
